<?xml version="1.0" standalone="no"?>
<!DOCTYPE svg PUBLIC "-//W3C//DTD SVG 20010904//EN"
 "http://www.w3.org/TR/2001/REC-SVG-20010904/DTD/svg10.dtd">
<svg version="1.0" xmlns="http://www.w3.org/2000/svg"
 width="208.000000pt" height="208.000000pt" viewBox="0 0 208.000000 208.000000"
 preserveAspectRatio="xMidYMid meet">
<metadata>
Created by potrace 1.11, written by Peter Selinger 2001-2013
</metadata>
<g transform="translate(0.000000,208.000000) scale(0.100000,-0.100000)"
fill="#000000" stroke="none">
<path d="M550 1040 l0 -940 105 0 105 0 1 728 c1 447 5 708 10 677 38 -217 74
-570 85 -835 3 -85 8 -175 9 -200 2 -25 4 -118 4 -207 l1 -163 170 0 170 0 1
153 c1 83 2 179 4 212 2 33 6 134 9 225 8 196 11 237 37 485 46 442 47 437 48
-352 l1 -723 115 0 115 0 0 940 0 940 -167 -2 -167 -3 -23 -135 c-65 -386
-120 -841 -123 -1030 -2 -95 -15 -40 -24 100 -14 223 -54 526 -115 860 l-37
205 -167 3 -167 2 0 -940z"/>
</g>
</svg>
